<svg width="19" height="12" viewBox="0 0 19 12" fill="none" xmlns="http://www.w3.org/2000/svg">
<path fill-rule="evenodd" clip-rule="evenodd" d="M0.875 1C0.875 0.654822 1.15482 0.375 1.5 0.375H5.71875C6.50611 0.375 7.26122 0.687778 7.81797 1.24453C8.37472 1.80128 8.6875 2.55639 8.6875 3.34375C8.6875 4.07507 8.41766 4.77857 7.93312 5.32114C8.31927 5.48426 8.67429 5.7214 8.97644 6.02356C9.5918 6.63891 9.9375 7.47351 9.9375 8.34375C9.9375 9.21399 9.5918 10.0486 8.97644 10.6639C8.36109 11.2793 7.52649 11.625 6.65625 11.625H1.5C1.15482 11.625 0.875 11.3452 0.875 11V1ZM2.125 6.3125V10.375H6.65625C7.19497 10.375 7.71163 10.161 8.09256 9.78006C8.47349 9.39913 8.6875 8.88247 8.6875 8.34375C8.6875 7.80503 8.47349 7.28837 8.09256 6.90744C7.71163 6.52651 7.19497 6.3125 6.65625 6.3125H2.125ZM5.71875 5.0625H2.125V1.625H5.71875C6.17459 1.625 6.61176 1.80608 6.93409 2.12841C7.25642 2.45074 7.4375 2.88791 7.4375 3.34375C7.4375 3.79959 7.25642 4.23676 6.93409 4.55909C6.61176 4.88142 6.17459 5.0625 5.71875 5.0625ZM11.5 2.25C11.5 1.90482 11.7798 1.625 12.125 1.625H17.125C17.4702 1.625 17.75 1.90482 17.75 2.25C17.75 2.59518 17.4702 2.875 17.125 2.875H12.125C11.7798 2.875 11.5 2.59518 11.5 2.25ZM12.8656 4.58208C13.6284 4.17339 14.5093 4.04173 15.3583 4.20951C16.2073 4.37728 16.9719 4.83411 17.5219 5.50224C18.0719 6.17036 18.3734 7.00846 18.375 7.87387C18.3753 8.03982 18.3096 8.19909 18.1923 8.31655C18.0751 8.434 17.916 8.50001 17.75 8.50001H12.2188C12.2278 8.53517 12.2376 8.57019 12.2482 8.60505C12.4157 9.15651 12.7692 9.63286 13.2484 9.95301C13.7277 10.2732 14.303 10.4173 14.8766 10.3609C15.4502 10.3046 15.9865 10.0511 16.3942 9.64379C16.6384 9.39983 17.0341 9.40002 17.2781 9.64422C17.5221 9.88841 17.5219 10.2841 17.2777 10.5281C16.6654 11.1397 15.8601 11.5203 14.9989 11.6049C14.1376 11.6896 13.2737 11.4731 12.5541 10.9924C11.8345 10.5117 11.3037 9.79641 11.0522 8.96837C10.9586 8.66031 10.9058 8.34373 10.8935 8.02642C10.8814 7.97794 10.875 7.92722 10.875 7.87501C10.875 7.82199 10.8816 7.77052 10.894 7.72137C10.9125 7.28793 11.0063 6.85781 11.1745 6.45094C11.5052 5.65119 12.1028 4.99076 12.8656 4.58208ZM12.2217 7.25001H17.0439C16.9531 6.9031 16.7879 6.57738 16.5569 6.29671C16.1906 5.85176 15.6814 5.54752 15.116 5.43579C14.5506 5.32406 13.9639 5.41174 13.4559 5.68391C12.9479 5.95608 12.5499 6.39591 12.3297 6.92852C12.2862 7.03361 12.2503 7.14103 12.2217 7.25001Z" fill="#171A18"/>
</svg>
