<svg width="14" height="18" viewBox="0 0 14 18" fill="none" xmlns="http://www.w3.org/2000/svg">
<path fill-rule="evenodd" clip-rule="evenodd" d="M6.51814 5.2666C6.85414 5.34566 7.06243 5.68214 6.98337 6.01814L4.48337 16.6431C4.40431 16.9791 4.06784 17.1874 3.73184 17.1084C3.39584 17.0293 3.18754 16.6928 3.2666 16.3568L5.7666 5.73184C5.84566 5.39584 6.18214 5.18754 6.51814 5.2666Z" fill="#171A18"/>
<path fill-rule="evenodd" clip-rule="evenodd" d="M7.95529 2.21678C7.08998 2.06766 6.20178 2.12319 5.36178 2.37891C4.52178 2.63464 3.75331 3.08347 3.11789 3.68947C2.48246 4.29547 1.99774 5.04181 1.7025 5.86875C1.40726 6.69569 1.30972 7.58027 1.41768 8.45167C1.52564 9.32307 1.8361 10.1571 2.32421 10.887C2.5161 11.1739 2.43905 11.5621 2.15212 11.754C1.86519 11.9458 1.47703 11.8688 1.28515 11.5819C0.688566 10.6898 0.309113 9.67041 0.177163 8.60536C0.0452139 7.54031 0.164432 6.45916 0.525276 5.44846C0.88612 4.43775 1.47857 3.52555 2.2552 2.78489C3.03182 2.04422 3.97106 1.49566 4.99773 1.1831C6.0244 0.870546 7.10998 0.802682 8.16758 0.984941C9.22518 1.1672 10.2254 1.59452 11.0882 2.2327C11.9511 2.87087 12.6525 3.70218 13.1364 4.66008C13.6203 5.61798 13.8733 6.67586 13.875 7.74905L13.875 7.75005C13.875 11.5253 11.1178 14.0001 8.24999 14.0001C6.84926 14.0001 5.89745 13.5338 5.28998 13.0331C4.99074 12.7865 4.78222 12.5376 4.64608 12.3452C4.57793 12.2489 4.52751 12.1662 4.49255 12.1042C4.47506 12.0731 4.46138 12.0471 4.45125 12.0271C4.44618 12.0171 4.44199 12.0085 4.43864 12.0015L4.43426 11.9923L4.43253 11.9885L4.43178 11.9869L4.43143 11.9862C4.43143 11.9862 4.43111 11.9854 4.99999 11.7266L4.43111 11.9854C4.28816 11.6713 4.42698 11.3007 4.74116 11.1577C5.0533 11.0157 5.42109 11.1518 5.56605 11.4616L5.5668 11.4632C5.56888 11.4673 5.57375 11.4767 5.58165 11.4907C5.59747 11.5188 5.62518 11.5649 5.6664 11.6231C5.74901 11.7399 5.88424 11.9031 6.08501 12.0685C6.47754 12.3921 7.15072 12.7501 8.24999 12.7501C10.3821 12.7501 12.6249 10.8812 12.625 7.75034C12.6235 6.87252 12.4165 6.00724 12.0207 5.22372C11.6248 4.43998 11.0509 3.75982 10.3449 3.23767C9.63898 2.71553 8.8206 2.3659 7.95529 2.21678Z" fill="#171A18"/>
</svg>
